<svg xmlns="http://www.w3.org/2000/svg" width="34.584" height="33.199" viewBox="351.4 192.406 34.584 33.199"><g data-name="Group 6159"><g data-name="Path 9155"><path d="M373.127 206.925c.225 0 .492-.007.759.002.554.02.92.383.935.936.011.37.008.74.002 1.108-.01.58-.387.957-.976.985-.72.035-.685.05-.971.734-.636 1.516-1.809 2.378-3.412 2.677-.096.018-.194.029-.291.045-.049.008-.096.021-.164.037v2.82c3.163.39 4.576 3.027 4.31 5.18-.304 2.439-2.3 4.188-4.684 4.156-2.376-.032-4.381-1.878-4.588-4.224-.203-2.29 1.31-4.748 4.326-5.103v-2.785c-.517-.146-1.03-.241-1.503-.435-1.297-.532-2.144-1.493-2.523-2.845-.06-.217-.149-.278-.355-.259-.17.017-.345.012-.516-.001-.548-.043-.905-.419-.916-.966-.008-.369-.008-.739 0-1.108.015-.573.381-.936.958-.953.256-.008.513-.001.843-.001l-.19-.258c-.492-.674-.995-1.34-1.467-2.026-.13-.188-.229-.297-.48-.295-1.502.015-3.004.004-4.506.01-.787.003-1.352.534-1.356 1.302-.01 2.044-.003 4.087-.003 6.13 0 .036.012.072.024.142 1.589.175 2.851.913 3.687 2.303.615 1.024.785 2.138.55 3.307-.445 2.228-2.622 3.887-4.847 3.703-2.428-.202-4.297-2.143-4.37-4.493-.07-2.209 1.496-4.518 4.36-4.82v-.422c0-1.895-.002-3.791.001-5.687.002-1.293.774-2.06 2.07-2.061 1.33-.002 2.66 0 3.989 0h.428l-.482-1.619h-7.548c-1.108-.001-1.707-.601-1.708-1.709v-2.3c-.1-.043-.187-.08-.273-.12-.603-.28-.94-.929-.807-1.545.141-.653.683-1.116 1.325-1.132a1.398 1.398 0 0 1 1.418 1.06c.161.62-.123 1.31-.73 1.574-.305.132-.35.297-.344.578.016.677.002 1.355.006 2.032.004.538.343.953.87.956 2.546.017 5.093.008 7.667.008v-1.735h-4.278c-1.087 0-1.579-.48-1.598-1.593a104.36 104.36 0 0 1-.002-2.659c.002-.228-.032-.367-.282-.473a1.378 1.378 0 0 1-.803-1.543c.143-.652.724-1.132 1.371-1.134.66-.002 1.235.461 1.385 1.115a1.384 1.384 0 0 1-.814 1.571c-.2.088-.275.183-.272.402.013.874.005 1.748.008 2.622.001.123.01.247.035.366.124.602.284.73.891.73 1.38 0 2.758-.006 4.136.005.264.003.373-.07.447-.34.858-3.152 3.643-5.29 6.84-5.275 3.207.016 5.949 2.132 6.804 5.274.074.271.183.343.447.341 1.44-.01 2.88-.013 4.32.001.344.004.538-.144.628-.447.059-.198.109-.407.112-.611.013-.837-.001-1.675.01-2.512.003-.213-.063-.32-.265-.411-.653-.297-.968-.954-.804-1.605a1.42 1.42 0 0 1 1.37-1.083 1.429 1.429 0 0 1 1.375 1.13c.14.646-.198 1.29-.864 1.577-.186.08-.227.178-.225.358.006.849.017 1.699-.006 2.548a2.78 2.78 0 0 1-.178.895c-.193.504-.56.767-1.137.758-1.379-.02-2.757-.007-4.136-.007h-.425v1.739h7.316c.843-.001 1.151-.314 1.152-1.162 0-.21-.015-.42.004-.628.04-.456-.003-.796-.517-1.04-.552-.26-.722-.99-.515-1.585.211-.61.791-.969 1.48-.915.59.045 1.095.505 1.223 1.11.128.6-.177 1.23-.735 1.515-.108.055-.22.102-.349.16 0 .53.002 1.058 0 1.587-.003.904-.641 1.547-1.563 1.55-2.4.006-4.801.002-7.202.002h-.412l-.482 1.6c.137.006.265.018.393.018 1.354.001 2.708-.002 4.062.001 1.247.003 2.028.785 2.029 2.025v6.146c1.543.165 2.763.846 3.606 2.127.625.95.872 2.006.711 3.134-.346 2.428-2.405 4.157-4.803 4.056-2.37-.1-4.325-2.026-4.464-4.358-.136-2.298 1.472-4.654 4.356-4.964v-6.15c-.001-.895-.525-1.42-1.422-1.421-1.49-.003-2.98-.004-4.469.004-.118 0-.288.037-.346.12-.56.8-1.102 1.616-1.66 2.446Zm-.302-.798c.084-.046.121-.056.142-.08 1.607-1.866 2.475-3.985 2.083-6.481-.445-2.834-2.916-5.095-5.684-5.339-3.198-.281-5.886 1.649-6.789 4.355-.76 2.278-.245 4.39.999 6.366.262.415.59.789.887 1.182l.098-.05v-.355c.001-.763-.01-1.526.005-2.289.026-1.345.902-2.399 2.237-2.493 1.284-.09 2.585-.08 3.869.017 1.23.093 2.108 1.147 2.147 2.381.019.615.005 1.23.006 1.846v.94Zm-19.66 13.271c.013-.16.018-.267.031-.373.108-.909.739-1.57 1.631-1.619.81-.044 1.625-.047 2.434-.003.952.053 1.602.752 1.67 1.7.005.087.024.173.04.284 1.532-1.469 1.517-4.088.001-5.625-1.594-1.617-4.204-1.643-5.769-.057-1.57 1.592-1.61 4.18-.037 5.693Zm31.057-.01c1.185-1.106 1.49-3.026.755-4.568-.746-1.564-2.468-2.49-4.196-2.257-1.709.23-3.117 1.583-3.45 3.247-.281 1.401.367 3.067 1.122 3.542 0-.086-.002-.158 0-.231.02-1.123.727-1.85 1.843-1.87.75-.013 1.501-.016 2.25.015.79.033 1.416.583 1.588 1.357.053.235.057.481.088.765Zm-12.671 4.4c1.632-1.567 1.56-4.264-.08-5.793-1.718-1.603-4.368-1.454-5.883.337-1.546 1.827-1.034 4.323.229 5.408 0-.166-.004-.295 0-.424.03-1.009.735-1.75 1.742-1.786.75-.027 1.502-.026 2.251 0 .942.033 1.63.68 1.737 1.595.023.191.004.387.004.662Zm-2.875-14.423v-.003c1.686 0 3.371-.006 5.056.005.35.003.5-.139.498-.475-.002-.271.001-.542 0-.813-.003-.477-.073-.56-.557-.56-3.04-.004-6.079-.002-9.118-.002-.32 0-.64.002-.96 0-.308-.002-.449.15-.443.455.005.283-.002.566 0 .85.005.448.097.542.542.542h4.982Zm3.767.608h-7.503c.17 1.543 1.931 2.871 3.77 2.867 1.81-.004 3.584-1.356 3.733-2.867Zm-2.512-3.054c.685 0 1.335.016 1.984-.015.11-.005.299-.207.3-.321.021-1.107.052-2.217-.005-3.321-.06-1.168-1.244-2.007-2.183-1.743-.162.402-.3.727-.422 1.057a.769.769 0 0 0-.04.317c.055.711.114 1.422.179 2.133.057.62.122 1.241.187 1.893Zm-2.574-5.401c-1.083-.226-2.169.65-2.195 1.912-.02 1.02 0 2.042-.009 3.063-.002.295.11.432.41.429.54-.007 1.082-.014 1.623.002.236.007.293-.102.31-.303.105-1.25.217-2.498.323-3.747a.666.666 0 0 0-.03-.284c-.129-.34-.27-.673-.432-1.072Zm1.34 20.604c-.332 0-.664-.004-.996.001-.805.013-1.28.49-1.29 1.289-.003.184.017.371-.005.553-.033.277.094.424.328.545 1.111.572 2.251.66 3.421.218.811-.307.808-.317.806-1.188 0-.074.003-.148 0-.221-.032-.704-.492-1.17-1.194-1.194-.357-.012-.714-.002-1.07-.003Zm12.64-4.272v.003c-.393 0-.786-.016-1.178.003-.543.027-.96.371-1.061.906-.059.309-.059.635-.038.95.008.13.108.305.219.368 1.36.773 2.731.764 4.094.002.093-.052.203-.17.21-.264.018-.329.03-.666-.019-.99-.09-.583-.529-.95-1.122-.975-.367-.016-.736-.003-1.105-.003Zm-25.252.132v.024c-.43 0-.863-.033-1.29.009-.5.049-.834.36-.952.848-.062.258-.076.54-.05.804.016.15.12.353.245.425 1.161.666 2.372.746 3.61.225.713-.3.71-.31.69-1.08-.017-.74-.477-1.218-1.22-1.252-.343-.016-.689-.003-1.033-.003Zm11.978-11.086h1.259l-.372-4.09h-.52l-.367 4.09Zm13.27-12.136a.806.806 0 0 0 .8-.828c-.012-.428-.392-.793-.814-.784a.825.825 0 0 0-.803.8.806.806 0 0 0 .816.812Zm-27.712 1.978a.808.808 0 0 0-1.618-.008.83.83 0 0 0 .787.815c.442.01.824-.36.83-.807Zm2.445-2.124a.795.795 0 0 0 .804-.82.821.821 0 0 0-.81-.789.824.824 0 0 0-.808.792.81.81 0 0 0 .814.817Zm28.423 2.19a.801.801 0 0 0-.8.789.821.821 0 0 0 .817.819.825.825 0 0 0 .802-.798.8.8 0 0 0-.819-.81Zm-15.79 5.4c.244-.04.583.086.598-.346.012-.365-.251-.38-.503-.36-.272.022-.677-.15-.703.339-.026.457.353.326.609.366Z" fill="#1cb4b5" fill-rule="evenodd"/><path d="M373.127 206.925c.225 0 .492-.007.759.002.554.02.92.383.935.936.011.37.008.74.002 1.108-.01.58-.387.957-.976.985-.72.035-.685.05-.971.734-.636 1.516-1.809 2.378-3.412 2.677-.096.018-.194.029-.291.045-.049.008-.096.021-.164.037v2.82c3.163.39 4.576 3.027 4.31 5.18-.304 2.439-2.3 4.188-4.684 4.156-2.376-.032-4.381-1.878-4.588-4.224-.203-2.29 1.31-4.748 4.326-5.103v-2.785c-.517-.146-1.03-.241-1.503-.435-1.297-.532-2.144-1.493-2.523-2.845-.06-.217-.149-.278-.355-.259-.17.017-.345.012-.516-.001-.548-.043-.905-.419-.916-.966-.008-.369-.008-.739 0-1.108.015-.573.381-.936.958-.953.256-.008.513-.001.843-.001l-.19-.258c-.492-.674-.995-1.34-1.467-2.026-.13-.188-.229-.297-.48-.295-1.502.015-3.004.004-4.506.01-.787.003-1.352.534-1.356 1.302-.01 2.044-.003 4.087-.003 6.13 0 .036.012.072.024.142 1.589.175 2.851.913 3.687 2.303.615 1.024.785 2.138.55 3.307-.445 2.228-2.622 3.887-4.847 3.703-2.428-.202-4.297-2.143-4.37-4.493-.07-2.209 1.496-4.518 4.36-4.82v-.422c0-1.895-.002-3.791.001-5.687.002-1.293.774-2.06 2.07-2.061 1.33-.002 2.66 0 3.989 0h.428l-.482-1.619h-7.548c-1.108-.001-1.707-.601-1.708-1.709v-2.3c-.1-.043-.187-.08-.273-.12-.603-.28-.94-.929-.807-1.545.141-.653.683-1.116 1.325-1.132a1.398 1.398 0 0 1 1.418 1.06c.161.62-.123 1.31-.73 1.574-.305.132-.35.297-.344.578.016.677.002 1.355.006 2.032.004.538.343.953.87.956 2.546.017 5.093.008 7.667.008v-1.735h-4.278c-1.087 0-1.579-.48-1.598-1.593a104.36 104.36 0 0 1-.002-2.659c.002-.228-.032-.367-.282-.473a1.378 1.378 0 0 1-.803-1.543c.143-.652.724-1.132 1.371-1.134.66-.002 1.235.461 1.385 1.115a1.384 1.384 0 0 1-.814 1.571c-.2.088-.275.183-.272.402.013.874.005 1.748.008 2.622.001.123.01.247.035.366.124.602.284.73.891.73 1.38 0 2.758-.006 4.136.005.264.003.373-.07.447-.34.858-3.152 3.643-5.29 6.84-5.275 3.207.016 5.949 2.132 6.804 5.274.074.271.183.343.447.341 1.44-.01 2.88-.013 4.32.001.344.004.538-.144.628-.447.059-.198.109-.407.112-.611.013-.837-.001-1.675.01-2.512.003-.213-.063-.32-.265-.411-.653-.297-.968-.954-.804-1.605a1.42 1.42 0 0 1 1.37-1.083 1.429 1.429 0 0 1 1.375 1.13c.14.646-.198 1.29-.864 1.577-.186.08-.227.178-.225.358.006.849.017 1.699-.006 2.548a2.78 2.78 0 0 1-.178.895c-.193.504-.56.767-1.137.758-1.379-.02-2.757-.007-4.136-.007h-.425v1.739h7.316c.843-.001 1.151-.314 1.152-1.162 0-.21-.015-.42.004-.628.04-.456-.003-.796-.517-1.04-.552-.26-.722-.99-.515-1.585.211-.61.791-.969 1.48-.915.59.045 1.095.505 1.223 1.11.128.6-.177 1.23-.735 1.515-.108.055-.22.102-.349.16 0 .53.002 1.058 0 1.587-.003.904-.641 1.547-1.563 1.55-2.4.006-4.801.002-7.202.002h-.412l-.482 1.6c.137.006.265.018.393.018 1.354.001 2.708-.002 4.062.001 1.247.003 2.028.785 2.029 2.025v6.146c1.543.165 2.763.846 3.606 2.127.625.95.872 2.006.711 3.134-.346 2.428-2.405 4.157-4.803 4.056-2.37-.1-4.325-2.026-4.464-4.358-.136-2.298 1.472-4.654 4.356-4.964v-6.15c-.001-.895-.525-1.42-1.422-1.421-1.49-.003-2.98-.004-4.469.004-.118 0-.288.037-.346.12-.56.8-1.102 1.616-1.66 2.446Zm-.302-.798c.084-.046.121-.056.142-.08 1.607-1.866 2.475-3.985 2.083-6.481-.445-2.834-2.916-5.095-5.684-5.339-3.198-.281-5.886 1.649-6.789 4.355-.76 2.278-.245 4.39.999 6.366.262.415.59.789.887 1.182l.098-.05v-.355c.001-.763-.01-1.526.005-2.289.026-1.345.902-2.399 2.237-2.493 1.284-.09 2.585-.08 3.869.017 1.23.093 2.108 1.147 2.147 2.381.019.615.005 1.23.006 1.846v.94Zm-19.66 13.271c.013-.16.018-.267.031-.373.108-.909.739-1.57 1.631-1.619.81-.044 1.625-.047 2.434-.003.952.053 1.602.752 1.67 1.7.005.087.024.173.04.284 1.532-1.469 1.517-4.088.001-5.625-1.594-1.617-4.204-1.643-5.769-.057-1.57 1.592-1.61 4.18-.037 5.693Zm31.057-.01c1.185-1.106 1.49-3.026.755-4.568-.746-1.564-2.468-2.49-4.196-2.257-1.709.23-3.117 1.583-3.45 3.247-.281 1.401.367 3.067 1.122 3.542 0-.086-.002-.158 0-.231.02-1.123.727-1.85 1.843-1.87.75-.013 1.501-.016 2.25.015.79.033 1.416.583 1.588 1.357.053.235.057.481.088.765Zm-12.671 4.4c1.632-1.567 1.56-4.264-.08-5.793-1.718-1.603-4.368-1.454-5.883.337-1.546 1.827-1.034 4.323.229 5.408 0-.166-.004-.295 0-.424.03-1.009.735-1.75 1.742-1.786.75-.027 1.502-.026 2.251 0 .942.033 1.63.68 1.737 1.595.023.191.004.387.004.662Zm-2.875-14.423v-.003c1.686 0 3.371-.006 5.056.005.35.003.5-.139.498-.475-.002-.271.001-.542 0-.813-.003-.477-.073-.56-.557-.56-3.04-.004-6.079-.002-9.118-.002-.32 0-.64.002-.96 0-.308-.002-.449.15-.443.455.005.283-.002.566 0 .85.005.448.097.542.542.542h4.982Zm3.767.608h-7.503c.17 1.543 1.931 2.871 3.77 2.867 1.81-.004 3.584-1.356 3.733-2.867Zm-2.512-3.054c.685 0 1.335.016 1.984-.015.11-.005.299-.207.3-.321.021-1.107.052-2.217-.005-3.321-.06-1.168-1.244-2.007-2.183-1.743-.162.402-.3.727-.422 1.057a.769.769 0 0 0-.04.317c.055.711.114 1.422.179 2.133.057.62.122 1.241.187 1.893Zm-2.574-5.401c-1.083-.226-2.169.65-2.195 1.912-.02 1.02 0 2.042-.009 3.063-.002.295.11.432.41.429.54-.007 1.082-.014 1.623.002.236.007.293-.102.31-.303.105-1.25.217-2.498.323-3.747a.666.666 0 0 0-.03-.284c-.129-.34-.27-.673-.432-1.072Zm1.34 20.604c-.332 0-.664-.004-.996.001-.805.013-1.28.49-1.29 1.289-.003.184.017.371-.005.553-.033.277.094.424.328.545 1.111.572 2.251.66 3.421.218.811-.307.808-.317.806-1.188 0-.074.003-.148 0-.221-.032-.704-.492-1.17-1.194-1.194-.357-.012-.714-.002-1.07-.003Zm12.64-4.272v.003c-.393 0-.786-.016-1.178.003-.543.027-.96.371-1.061.906-.059.309-.059.635-.038.95.008.13.108.305.219.368 1.36.773 2.731.764 4.094.002.093-.052.203-.17.21-.264.018-.329.03-.666-.019-.99-.09-.583-.529-.95-1.122-.975-.367-.016-.736-.003-1.105-.003Zm-25.252.132v.024c-.43 0-.863-.033-1.29.009-.5.049-.834.36-.952.848-.062.258-.076.54-.05.804.016.15.12.353.245.425 1.161.666 2.372.746 3.61.225.713-.3.71-.31.69-1.08-.017-.74-.477-1.218-1.22-1.252-.343-.016-.689-.003-1.033-.003Zm11.978-11.086h1.259l-.372-4.09h-.52l-.367 4.09Zm13.27-12.136a.806.806 0 0 0 .8-.828c-.012-.428-.392-.793-.814-.784a.825.825 0 0 0-.803.8.806.806 0 0 0 .816.812Zm-27.712 1.978a.808.808 0 0 0-1.618-.008.83.83 0 0 0 .787.815c.442.01.824-.36.83-.807Zm2.445-2.124a.795.795 0 0 0 .804-.82.821.821 0 0 0-.81-.789.824.824 0 0 0-.808.792.81.81 0 0 0 .814.817Zm28.423 2.19a.801.801 0 0 0-.8.789.821.821 0 0 0 .817.819.825.825 0 0 0 .802-.798.8.8 0 0 0-.819-.81Zm-15.79 5.4c.244-.04.583.086.598-.346.012-.365-.251-.38-.503-.36-.272.022-.677-.15-.703.339-.026.457.353.326.609.366Z" stroke-linejoin="round" stroke-linecap="round" stroke-width=".125" stroke="#1cb4b5" fill="transparent"/></g><g data-name="Path 9156"><path d="M371.504 197.612a2.818 2.818 0 0 1-2.812 2.82 2.82 2.82 0 0 1-2.815-2.82c.001-1.58 1.277-2.858 2.833-2.839a2.822 2.822 0 0 1 2.794 2.84Zm-.594-.019c0-1.21-.986-2.205-2.201-2.221-1.217-.016-2.24 1-2.238 2.223.003 1.24.995 2.24 2.22 2.24a2.23 2.23 0 0 0 2.219-2.242Z" fill="#1cb4b5" fill-rule="evenodd"/><path d="M371.504 197.612a2.818 2.818 0 0 1-2.812 2.82 2.82 2.82 0 0 1-2.815-2.82c.001-1.58 1.277-2.858 2.833-2.839a2.822 2.822 0 0 1 2.794 2.84Zm-.594-.019c0-1.21-.986-2.205-2.201-2.221-1.217-.016-2.24 1-2.238 2.223.003 1.24.995 2.24 2.22 2.24a2.23 2.23 0 0 0 2.219-2.242Z" stroke-linejoin="round" stroke-linecap="round" stroke-width=".125" stroke="#1cb4b5" fill="transparent"/></g><g data-name="Path 9157"><path d="M356.067 213.217c1.097-.001 1.99.901 1.985 2.003a2.004 2.004 0 0 1-1.981 1.975 2.002 2.002 0 0 1-2.003-1.99 1.993 1.993 0 0 1 1.999-1.988Zm.001.594a1.411 1.411 0 0 0-1.406 1.405c.005.747.64 1.38 1.391 1.387.744.007 1.393-.627 1.404-1.373a1.41 1.41 0 0 0-1.389-1.42Z" fill="#1cb4b5" fill-rule="evenodd"/><path d="M356.067 213.217c1.097-.001 1.99.901 1.985 2.003a2.004 2.004 0 0 1-1.981 1.975 2.002 2.002 0 0 1-2.003-1.99 1.993 1.993 0 0 1 1.999-1.988Zm.001.594a1.411 1.411 0 0 0-1.406 1.405c.005.747.64 1.38 1.391 1.387.744.007 1.393-.627 1.404-1.373a1.41 1.41 0 0 0-1.389-1.42Z" stroke-linejoin="round" stroke-linecap="round" stroke-width=".125" stroke="#1cb4b5" fill="transparent"/></g><g data-name="Path 9158"><path d="M381.288 217.055a1.994 1.994 0 0 1-1.956-2.025 2.003 2.003 0 0 1 2.026-1.959c1.088.015 1.972.933 1.957 2.03a1.993 1.993 0 0 1-2.027 1.954Zm1.431-1.976c.012-.745-.614-1.393-1.364-1.413-.76-.02-1.422.621-1.43 1.386a1.412 1.412 0 0 0 1.365 1.41 1.412 1.412 0 0 0 1.43-1.383Z" fill="#1cb4b5" fill-rule="evenodd"/><path d="M381.288 217.055a1.994 1.994 0 0 1-1.956-2.025 2.003 2.003 0 0 1 2.026-1.959c1.088.015 1.972.933 1.957 2.03a1.993 1.993 0 0 1-2.027 1.954Zm1.431-1.976c.012-.745-.614-1.393-1.364-1.413-.76-.02-1.422.621-1.43 1.386a1.412 1.412 0 0 0 1.365 1.41 1.412 1.412 0 0 0 1.43-1.383Z" stroke-linejoin="round" stroke-linecap="round" stroke-width=".125" stroke="#1cb4b5" fill="transparent"/></g><g data-name="Path 9159"><path d="M368.705 217.35a1.998 1.998 0 0 1 1.976 2.006c-.004 1.085-.919 1.984-2.01 1.976a1.998 1.998 0 0 1-1.972-2.01c.009-1.1.903-1.979 2.006-1.972Zm1.383 1.979a1.41 1.41 0 0 0-1.428-1.383c-.75.007-1.37.642-1.369 1.401.002.746.643 1.389 1.388 1.39.763.002 1.42-.655 1.409-1.408Z" fill="#1cb4b5" fill-rule="evenodd"/><path d="M368.705 217.35a1.998 1.998 0 0 1 1.976 2.006c-.004 1.085-.919 1.984-2.01 1.976a1.998 1.998 0 0 1-1.972-2.01c.009-1.1.903-1.979 2.006-1.972Zm1.383 1.979a1.41 1.41 0 0 0-1.428-1.383c-.75.007-1.37.642-1.369 1.401.002.746.643 1.389 1.388 1.39.763.002 1.42-.655 1.409-1.408Z" stroke-linejoin="round" stroke-linecap="round" stroke-width=".125" stroke="#1cb4b5" fill="transparent"/></g></g></svg>